REM MD5 fb72c2503a067fe38cea9a21f31d116c
FILE "StarSweep (Japan) (Demo 2).bin" BINARY
  TRACK 01 MODE2/2352
    INDEX 01 00:00:00
  TRACK 02 AUDIO
    INDEX 00 00:30:38
    INDEX 01 00:32:38
  TRACK 03 AUDIO
    INDEX 00 02:49:67
    INDEX 01 02:51:67
REM LEADOUT 06:04:15
